<svg width="40" height="40" viewBox="0 0 40 40" fill="none" xmlns="http://www.w3.org/2000/svg">
<path d="M24.2492 6.96118C24.3006 6.96118 24.352 6.96118 24.4063 6.96118C24.5323 8.51814 23.938 9.6815 23.2158 10.524C22.5071 11.3606 21.5366 12.1721 19.9671 12.0489C19.8624 10.5143 20.4576 9.4372 21.1789 8.59667C21.8478 7.81334 23.0742 7.1163 24.2492 6.96118Z" fill="#2C2C2C"/>
<path d="M29.0001 23.1667C29.0001 23.1822 29.0001 23.1958 29.0001 23.2103C28.559 24.5462 27.9298 25.6912 27.162 26.7537C26.461 27.7183 25.6021 29.0164 24.0684 29.0164C22.7431 29.0164 21.8629 28.1643 20.5046 28.141C19.0679 28.1177 18.2778 28.8536 16.9642 29.0387C16.8139 29.0387 16.6636 29.0387 16.5163 29.0387C15.5516 28.8991 14.7732 28.1352 14.206 27.4469C12.5337 25.4129 11.2414 22.7857 11.001 19.4236C11.001 19.094 11.001 18.7653 11.001 18.4357C11.1028 16.0295 12.2719 14.0731 13.826 13.125C14.6462 12.6208 15.7737 12.1914 17.0291 12.3833C17.5672 12.4667 18.1169 12.6509 18.5987 12.8331C19.0553 13.0086 19.6263 13.3198 20.1673 13.3033C20.5337 13.2927 20.8983 13.1017 21.2676 12.9669C22.3495 12.5762 23.4101 12.1283 24.8081 12.3387C26.4882 12.5927 27.6806 13.3392 28.4174 14.4909C26.9962 15.3954 25.8726 16.7585 26.0645 19.0862C26.2352 21.2006 27.4644 22.4376 29.0001 23.1667Z" fill="#2C2C2C"/>
</svg>
