<svg width="40" height="40" viewBox="0 0 40 40" fill="none" xmlns="http://www.w3.org/2000/svg">
<g clip-path="url(#clip0_443_8850)">
<path d="M20 32C26.6274 32 32 26.6274 32 20C32 13.3726 26.6274 8 20 8C13.3726 8 8 13.3726 8 20C8 26.6274 13.3726 32 20 32Z" fill="#3B5998"/>
<path d="M23.0172 20.4697H20.876V28.3142H17.6318V20.4697H16.0889V17.7128H17.6318V15.9288C17.6318 14.653 18.2378 12.6553 20.9049 12.6553L23.3079 12.6653V15.3414H21.5644C21.2784 15.3414 20.8762 15.4843 20.8762 16.0928V17.7153H23.3007L23.0172 20.4697Z" fill="white"/>
</g>
<defs>
<clipPath id="clip0_443_8850">
<rect width="24" height="24" fill="white" transform="translate(8 8)"/>
</clipPath>
</defs>
</svg>
