<svg width="40" height="40" viewBox="0 0 40 40" fill="none" xmlns="http://www.w3.org/2000/svg">
<path d="M13.8757 22.2949L13.1099 25.1538L10.3109 25.213C9.47447 23.6615 9 21.8864 9 20C9 18.1759 9.44361 16.4558 10.23 14.9412H10.2306L12.7224 15.398L13.814 17.8749C13.5856 18.541 13.461 19.256 13.461 20C13.4611 20.8075 13.6074 21.5812 13.8757 22.2949Z" fill="#FBBB00"/>
<path d="M30.8073 17.9451C30.9336 18.6105 30.9995 19.2977 30.9995 20C30.9995 20.7876 30.9167 21.5558 30.759 22.2968C30.2235 24.8183 28.8243 27.0202 26.886 28.5783L26.8854 28.5777L23.7467 28.4176L23.3025 25.6446C24.5887 24.8903 25.5938 23.7099 26.1233 22.2968H20.2412V17.9451H26.2091H30.8073Z" fill="#518EF8"/>
<path d="M26.8857 28.5777L26.8863 28.5783C25.0012 30.0935 22.6065 31.0001 19.9997 31.0001C15.8106 31.0001 12.1685 28.6587 10.3105 25.213L13.8753 22.2949C14.8043 24.7742 17.1959 26.539 19.9997 26.539C21.2049 26.539 22.334 26.2132 23.3028 25.6445L26.8857 28.5777Z" fill="#28B446"/>
<path d="M27.021 11.5324L23.4575 14.4499C22.4548 13.8231 21.2695 13.4611 19.9997 13.4611C17.1324 13.4611 14.696 15.3069 13.8136 17.875L10.2301 14.9413H10.2295C12.0602 11.4116 15.7483 9 19.9997 9C22.6687 9 25.1159 9.95074 27.021 11.5324Z" fill="#F14336"/>
</svg>
